<svg width="101" height="10" viewBox="0 0 101 10" fill="none" xmlns="http://www.w3.org/2000/svg">
<path d="M4.584 9.1199C4 9.1199 3.464 9.0159 2.976 8.8079C2.488 8.5999 2.064 8.30391 1.704 7.91991C1.344 7.52791 1.064 7.06791 0.864004 6.53992C0.672004 6.01192 0.576004 5.43192 0.576004 4.79992C0.576004 4.19992 0.680004 3.64392 0.888004 3.13192C1.104 2.61192 1.4 2.15593 1.776 1.76393C2.152 1.37193 2.588 1.06793 3.084 0.851931C3.58 0.635932 4.116 0.527932 4.692 0.527932C5.1 0.527932 5.496 0.591932 5.88 0.719931C6.272 0.839931 6.624 1.01193 6.936 1.23593C7.17942 1.40024 7.38812 1.58306 7.5621 1.7844C7.65648 1.89361 7.64358 2.05537 7.54361 2.1595L7.0665 2.65649C6.94916 2.77872 6.75466 2.77869 6.62898 2.66505C6.35625 2.41845 6.07859 2.22608 5.796 2.08793C5.436 1.91193 5.068 1.82393 4.692 1.82393C4.3 1.82393 3.932 1.89993 3.588 2.05193C3.252 2.19593 2.956 2.39992 2.7 2.66392C2.452 2.92792 2.256 3.24392 2.112 3.61192C1.968 3.97192 1.896 4.36792 1.896 4.79992C1.896 5.25592 1.964 5.67192 2.1 6.04792C2.244 6.41592 2.444 6.73192 2.7 6.99592C2.956 7.25992 3.26 7.46391 3.612 7.60791C3.972 7.74391 4.368 7.81191 4.8 7.81191C5.064 7.81191 5.324 7.77591 5.58 7.70391C5.836 7.63191 6.076 7.52791 6.3 7.39191C6.41455 7.32237 6.52386 7.24655 6.62794 7.16446C6.78022 7.04435 7.00948 7.07076 7.11091 7.23606L7.44609 7.78227C7.51402 7.89298 7.50425 8.03632 7.40988 8.12557C7.24627 8.28029 7.04431 8.42374 6.804 8.55591C6.492 8.7319 6.14 8.8719 5.748 8.9759C5.364 9.0719 4.976 9.1199 4.584 9.1199Z" fill="black"/>
<path d="M12.2427 9.1199C11.6507 9.1199 11.1027 9.0119 10.5987 8.7959C10.1027 8.5799 9.6667 8.27991 9.2907 7.89591C8.9227 7.50391 8.63469 7.04791 8.42669 6.52792C8.22669 5.99992 8.12669 5.42392 8.12669 4.79992C8.12669 4.17592 8.22669 3.60392 8.42669 3.08392C8.63469 2.55592 8.9227 2.09993 9.2907 1.71593C9.6667 1.32393 10.1027 1.01993 10.5987 0.803931C11.1027 0.587932 11.6507 0.479932 12.2427 0.479932C12.8347 0.479932 13.3787 0.587932 13.8747 0.803931C14.3787 1.01993 14.8147 1.32393 15.1827 1.71593C15.5587 2.10793 15.8467 2.56792 16.0467 3.09592C16.2547 3.61592 16.3587 4.18392 16.3587 4.79992C16.3587 5.41592 16.2547 5.98792 16.0467 6.51592C15.8467 7.03591 15.5587 7.49191 15.1827 7.88391C14.8147 8.27591 14.3787 8.5799 13.8747 8.7959C13.3787 9.0119 12.8347 9.1199 12.2427 9.1199ZM12.2427 7.85991C12.6507 7.85991 13.0227 7.78391 13.3587 7.63191C13.7027 7.47991 13.9987 7.26792 14.2467 6.99592C14.4947 6.71592 14.6867 6.39192 14.8227 6.02392C14.9667 5.64792 15.0387 5.23992 15.0387 4.79992C15.0387 4.35992 14.9667 3.95592 14.8227 3.58792C14.6867 3.21192 14.4947 2.88792 14.2467 2.61592C13.9987 2.33592 13.7027 2.11993 13.3587 1.96793C13.0227 1.81593 12.6507 1.73993 12.2427 1.73993C11.8347 1.73993 11.4587 1.81593 11.1147 1.96793C10.7787 2.11993 10.4827 2.33192 10.2267 2.60392C9.97869 2.87592 9.7867 3.19992 9.6507 3.57592C9.5147 3.94392 9.44669 4.35192 9.44669 4.79992C9.44669 5.39192 9.56669 5.91992 9.80669 6.38392C10.0467 6.83992 10.3747 7.19991 10.7907 7.46391C11.2147 7.72791 11.6987 7.85991 12.2427 7.85991Z" fill="black"/>
<path d="M17.8214 8.9999C17.6557 8.9999 17.5214 8.86559 17.5214 8.6999V0.899929C17.5214 0.734243 17.6557 0.599928 17.8214 0.599928H18.5174C18.683 0.599928 18.8174 0.734243 18.8174 0.899928V7.45191C18.8174 7.6176 18.9517 7.75191 19.1174 7.75191H22.4534C22.619 7.75191 22.7534 7.88623 22.7534 8.05191V8.6999C22.7534 8.86559 22.619 8.9999 22.4534 8.9999H17.8214Z" fill="black"/>
<path d="M24.412 8.99991C24.2463 8.99991 24.112 8.86559 24.112 8.69991V0.899934C24.112 0.734249 24.2463 0.599934 24.412 0.599934H25.108C25.2737 0.599934 25.408 0.734249 25.408 0.899934V7.45192C25.408 7.6176 25.5423 7.75192 25.708 7.75192H29.044C29.2097 7.75192 29.344 7.88623 29.344 8.05192V8.69991C29.344 8.86559 29.2097 8.99991 29.044 8.99991H24.412Z" fill="black"/>
<path d="M49.5643 9.11991C48.9723 9.11991 48.4243 9.01191 47.9203 8.79591C47.4243 8.57991 46.9883 8.27992 46.6123 7.89592C46.2443 7.50392 45.9563 7.04793 45.7483 6.52793C45.5483 5.99993 45.4483 5.42393 45.4483 4.79993C45.4483 4.17593 45.5483 3.60393 45.7483 3.08393C45.9563 2.55593 46.2443 2.09994 46.6123 1.71594C46.9883 1.32394 47.4243 1.01994 47.9203 0.803942C48.4243 0.587942 48.9723 0.479942 49.5643 0.479942C50.1563 0.479942 50.7003 0.587942 51.1963 0.803942C51.7003 1.01994 52.1363 1.32394 52.5043 1.71594C52.8803 2.10794 53.1683 2.56793 53.3683 3.09593C53.5763 3.61593 53.6803 4.18393 53.6803 4.79993C53.6803 5.41593 53.5763 5.98793 53.3683 6.51593C53.1683 7.03593 52.8803 7.49192 52.5043 7.88392C52.1363 8.27592 51.7003 8.57991 51.1963 8.79591C50.7003 9.01191 50.1563 9.11991 49.5643 9.11991ZM49.5643 7.85992C49.9723 7.85992 50.3443 7.78392 50.6803 7.63192C51.0243 7.47992 51.3203 7.26793 51.5683 6.99593C51.8163 6.71593 52.0083 6.39193 52.1443 6.02393C52.2883 5.64793 52.3603 5.23993 52.3603 4.79993C52.3603 4.35993 52.2883 3.95593 52.1443 3.58793C52.0083 3.21193 51.8163 2.88793 51.5683 2.61593C51.3203 2.33593 51.0243 2.11994 50.6803 1.96794C50.3443 1.81594 49.9723 1.73994 49.5643 1.73994C49.1563 1.73994 48.7803 1.81594 48.4363 1.96794C48.1003 2.11994 47.8043 2.33193 47.5483 2.60393C47.3003 2.87593 47.1083 3.19993 46.9723 3.57593C46.8363 3.94393 46.7683 4.35193 46.7683 4.79993C46.7683 5.39193 46.8883 5.91993 47.1283 6.38393C47.3683 6.83993 47.6963 7.19992 48.1123 7.46392C48.5363 7.72792 49.0203 7.85992 49.5643 7.85992Z" fill="black"/>
<path d="M73.5557 9.10938C72.9717 9.10938 72.4357 9.00538 71.9477 8.79738C71.4597 8.58938 71.0357 8.29338 70.6757 7.90938C70.3157 7.51738 70.0357 7.05737 69.8357 6.52938C69.6437 6.00138 69.5477 5.42137 69.5477 4.78938C69.5477 4.18938 69.6517 3.63337 69.8597 3.12138C70.0757 2.60138 70.3717 2.14538 70.7477 1.75338C71.1237 1.36138 71.5597 1.05738 72.0557 0.841377C72.5517 0.625377 73.0877 0.517377 73.6637 0.517377C74.0717 0.517377 74.4677 0.581377 74.8517 0.709376C75.2437 0.829376 75.5957 1.00138 75.9077 1.22538C76.1511 1.38968 76.3598 1.57251 76.5338 1.77385C76.6281 1.88306 76.6152 2.04482 76.5153 2.14895L76.2557 2.41937L76.0381 2.64595C75.9208 2.76817 75.7263 2.76814 75.6006 2.65451C75.3279 2.40791 75.0502 2.21553 74.7677 2.07738C74.4077 1.90138 74.0397 1.81338 73.6637 1.81338C73.2717 1.81338 72.9037 1.88938 72.5597 2.04138C72.2237 2.18538 71.9277 2.38938 71.6717 2.65338C71.4237 2.91738 71.2277 3.23338 71.0837 3.60138C70.9397 3.96137 70.8677 4.35738 70.8677 4.78938C70.8677 5.24537 70.9357 5.66138 71.0717 6.03738C71.2157 6.40538 71.4157 6.72138 71.6717 6.98538C71.9277 7.24938 72.2317 7.45338 72.5837 7.59738C72.9437 7.73338 73.3397 7.80138 73.7717 7.80138C74.0357 7.80138 74.2957 7.76538 74.5517 7.69338C74.8077 7.62138 75.0477 7.51738 75.2717 7.38138C75.3862 7.31183 75.4955 7.23601 75.5996 7.15392C75.7519 7.03382 75.9811 7.06023 76.0826 7.22552L76.4177 7.77174C76.4857 7.88245 76.4759 8.02579 76.3815 8.11504C76.2179 8.26976 76.016 8.41321 75.7757 8.54538C75.4637 8.72138 75.1117 8.86138 74.7197 8.96538C74.3357 9.06138 73.9477 9.10938 73.5557 9.10938Z" fill="black"/>
<path d="M81.22 9.10135C80.628 9.10135 80.08 8.99335 79.576 8.77735C79.08 8.56135 78.644 8.26136 78.268 7.87736C77.9 7.48536 77.612 7.02936 77.404 6.50936C77.204 5.98137 77.104 5.40537 77.104 4.78137C77.104 4.15737 77.204 3.58537 77.404 3.06537C77.612 2.53737 77.9 2.08137 78.268 1.69738C78.644 1.30538 79.08 1.00138 79.576 0.78538C80.08 0.56938 80.628 0.46138 81.22 0.46138C81.812 0.46138 82.356 0.56938 82.852 0.78538C83.356 1.00138 83.792 1.30538 84.16 1.69738C84.536 2.08937 84.824 2.54937 85.024 3.07737C85.232 3.59737 85.336 4.16537 85.336 4.78137C85.336 5.39737 85.232 5.96937 85.024 6.49736C84.824 7.01736 84.536 7.47336 84.16 7.86536C83.792 8.25736 83.356 8.56135 82.852 8.77735C82.356 8.99335 81.812 9.10135 81.22 9.10135ZM81.22 7.84136C81.628 7.84136 82 7.76536 82.336 7.61336C82.68 7.46136 82.976 7.24936 83.224 6.97736C83.472 6.69736 83.664 6.37337 83.8 6.00537C83.944 5.62937 84.016 5.22137 84.016 4.78137C84.016 4.34137 83.944 3.93737 83.8 3.56937C83.664 3.19337 83.472 2.86937 83.224 2.59737C82.976 2.31737 82.68 2.10137 82.336 1.94937C82 1.79738 81.628 1.72138 81.22 1.72138C80.812 1.72138 80.436 1.79738 80.092 1.94937C79.756 2.10137 79.46 2.31337 79.204 2.58537C78.956 2.85737 78.764 3.18137 78.628 3.55737C78.492 3.92537 78.424 4.33337 78.424 4.78137C78.424 5.37337 78.544 5.90137 78.784 6.36537C79.024 6.82136 79.352 7.18136 79.768 7.44536C80.192 7.70936 80.676 7.84136 81.22 7.84136Z" fill="black"/>
<path d="M86.4794 0.899931C86.4794 0.734245 86.6137 0.599931 86.7794 0.599931H89.7674C90.3674 0.599931 90.9074 0.699932 91.3874 0.899931C91.8754 1.09993 92.2914 1.38793 92.6354 1.76393C92.9794 2.13993 93.2434 2.58392 93.4274 3.09592C93.6114 3.60792 93.7034 4.17592 93.7034 4.79992C93.7034 5.42392 93.6114 5.99592 93.4274 6.51592C93.2434 7.02791 92.9794 7.47191 92.6354 7.84791C92.2994 8.21591 91.8874 8.49991 91.3994 8.6999C90.9114 8.8999 90.3674 8.9999 89.7674 8.9999H86.7794C86.6137 8.9999 86.4794 8.86559 86.4794 8.6999V7.75191H89.7074C90.1314 7.75191 90.5074 7.68391 90.8354 7.54791C91.1714 7.41191 91.4514 7.21992 91.6754 6.97192C91.9074 6.71592 92.0834 6.40392 92.2034 6.03592C92.3234 5.66792 92.3834 5.25592 92.3834 4.79992C92.3834 4.34392 92.3234 3.93592 92.2034 3.57592C92.0834 3.20792 91.9074 2.89592 91.6754 2.63992C91.4434 2.38392 91.1634 2.18793 90.8354 2.05193C90.5074 1.91593 90.1314 1.84793 89.7074 1.84793H86.4794V0.899931Z" fill="black"/>
<path fill-rule="evenodd" clip-rule="evenodd" d="M95.1632 8.9999C94.9975 8.9999 94.8632 8.86559 94.8632 8.6999V7.75191H96.1592H99.8552C100.021 7.75191 100.155 7.88623 100.155 8.05191V8.6999C100.155 8.86559 100.021 8.9999 99.8552 8.9999H95.1632ZM99.4952 5.01592C99.4952 5.18161 99.3608 5.31592 99.1952 5.31592H94.8632V4.06792H99.1952C99.3608 4.06792 99.4952 4.20223 99.4952 4.36792V5.01592ZM94.8632 1.84793V0.899931C94.8632 0.734245 94.9975 0.599931 95.1632 0.599931H99.8552C100.021 0.599931 100.155 0.734246 100.155 0.899931V1.54793C100.155 1.71361 100.021 1.84793 99.8552 1.84793H96.1592H94.8632Z" fill="black"/>
<path fill-rule="evenodd" clip-rule="evenodd" d="M38.7851 8.9999C38.6194 8.9999 38.4851 8.86559 38.4851 8.6999V7.75191H42.0371C42.5251 7.75191 42.9051 7.64391 43.1771 7.42791C43.4491 7.21191 43.5851 6.90392 43.5851 6.50392C43.5851 6.25592 43.5171 6.04392 43.3811 5.86792C43.2531 5.69192 43.0691 5.55992 42.8291 5.47192C42.5891 5.37592 42.3051 5.32792 41.9771 5.32792H38.4851V4.07992H41.9171C42.1571 4.07992 42.3691 4.03192 42.5531 3.93592C42.7451 3.83992 42.8931 3.70792 42.9971 3.53992C43.1091 3.37192 43.1651 3.17992 43.1651 2.96392C43.1651 2.60392 43.0451 2.32793 42.8051 2.13593C42.5651 1.94393 42.2211 1.84793 41.7731 1.84793H38.4851V0.899931C38.4851 0.734245 38.6194 0.599931 38.7851 0.599931H41.9891C42.5251 0.599931 42.9771 0.679931 43.3451 0.839931C43.7131 0.999931 43.9891 1.23993 44.1731 1.55993C44.3651 1.87193 44.4611 2.25592 44.4611 2.71192C44.4611 3.16792 44.3331 3.55592 44.0771 3.87592C43.903 4.10064 43.6795 4.27605 43.4067 4.40214C43.6307 4.4834 43.8342 4.592 44.0171 4.72792C44.2971 4.92792 44.5131 5.17992 44.6651 5.48392C44.8251 5.78792 44.9051 6.13592 44.9051 6.52792C44.9051 6.92792 44.8411 7.28391 44.7131 7.59591C44.5931 7.89991 44.4091 8.15591 44.1611 8.36391C43.9211 8.57191 43.6291 8.7319 43.2851 8.8439C42.9411 8.9479 42.5491 8.9999 42.1091 8.9999H38.7851Z" fill="black"/>
<path fill-rule="evenodd" clip-rule="evenodd" d="M55.1331 8.99218C54.9674 8.99218 54.8331 8.85787 54.8331 8.69218V0.892212C54.8331 0.726526 54.9674 0.592211 55.1331 0.592211H58.4091C58.8891 0.592211 59.3291 0.712212 59.7291 0.952211C60.1371 1.18421 60.4611 1.50421 60.7011 1.91221C60.9411 2.31221 61.0611 2.7642 61.0611 3.2682C61.0611 3.7242 60.9411 4.1482 60.7011 4.5402C60.4611 4.9322 60.1411 5.2482 59.7411 5.4882V5.4882C59.59 5.57584 59.5239 5.76869 59.6114 5.91987L61.2656 8.77703C61.3237 8.87747 61.2507 9.00307 61.1346 9.00218L59.9989 8.99351C59.8914 8.99269 59.7926 8.93442 59.7398 8.84076L58.1908 6.09081C58.1022 5.93352 57.9357 5.8362 57.7551 5.8362H56.4291C56.2634 5.8362 56.1291 5.97051 56.1291 6.1362V8.69218C56.1291 8.85787 55.9948 8.99218 55.8291 8.99218H55.1331ZM58.5291 4.5882H56.4291C56.2634 4.5882 56.1291 4.45389 56.1291 4.2882V2.14021C56.1291 1.97452 56.2634 1.84021 56.4291 1.84021H58.1931C58.4891 1.84021 58.7531 1.90021 58.9851 2.02021C59.2251 2.14021 59.4091 2.3082 59.5371 2.5242C59.6731 2.7322 59.7411 2.9762 59.7411 3.2562C59.7411 3.5042 59.6891 3.7322 59.5851 3.9402C59.4811 4.1402 59.3371 4.3002 59.1531 4.4202C58.9691 4.5322 58.7611 4.5882 58.5291 4.5882Z" fill="black"/>
<path d="M64.8378 0.83583C64.8975 0.681784 65.0457 0.580243 65.2109 0.580243H65.982C66.1475 0.580243 66.296 0.682225 66.3554 0.836758L69.3759 8.69693C69.4262 8.8278 69.3297 8.96846 69.1895 8.96868L61.9772 8.97976C61.8365 8.97998 61.7395 8.83874 61.7903 8.70756L62.0866 7.94232H67.4257C67.5645 7.94232 67.6611 7.80438 67.6136 7.67394L65.7028 2.42157C65.6549 2.28991 65.4687 2.28996 65.4208 2.42165L63.8347 6.78939C63.7917 6.90802 63.6789 6.987 63.5527 6.987H62.4564L64.8378 0.83583Z" fill="black"/>
<path d="M32.9751 0.843534C33.0347 0.689488 33.1829 0.587946 33.3481 0.587946H34.1192C34.2848 0.587946 34.4332 0.689929 34.4926 0.844462L37.513 8.70419C37.5634 8.83518 37.4667 8.97593 37.3263 8.97593H30.1186C29.978 8.97593 29.8813 8.83479 29.9321 8.70373L30.2239 7.95002H35.5629C35.7017 7.95002 35.7983 7.81209 35.7509 7.68165L33.84 2.42928C33.7921 2.29761 33.6059 2.29767 33.5581 2.42936L31.972 6.7971C31.9289 6.91572 31.8162 6.9947 31.69 6.9947H30.5937L32.9751 0.843534Z" fill="black"/>
</svg>
