<svg width="512" height="45" viewBox="0 0 512 45" fill="none" xmlns="http://www.w3.org/2000/svg">
<path d="M20.6077 44.519C17.605 44.519 14.8491 43.9843 12.3399 42.9148C9.83081 41.8453 7.65076 40.3235 5.79977 38.3491C3.94878 36.3336 2.50912 33.9684 1.48079 31.2536C0.493598 28.5389 0 25.5567 0 22.3072C0 19.2222 0.534731 16.3635 1.60419 13.731C2.71479 11.0573 4.23671 8.71274 6.16997 6.69722C8.10322 4.68171 10.345 3.11866 12.8952 2.00807C15.4455 0.897478 18.2014 0.342182 21.163 0.342182C23.2608 0.342182 25.2969 0.671245 27.2712 1.32937C29.2868 1.94637 31.0966 2.83073 32.7008 3.98246C34.2691 5.04103 35.5571 6.24908 36.5648 7.60662C36.6508 7.72252 36.6389 7.88326 36.5389 7.98739L32.4834 12.2118C32.3661 12.3341 32.1709 12.3347 32.0511 12.2148C30.3517 10.5148 28.6144 9.23092 26.8393 8.36311C24.9884 7.45818 23.0962 7.00572 21.163 7.00572C19.1475 7.00572 17.2553 7.39648 15.4866 8.17801C13.759 8.9184 12.2371 9.96729 10.9208 11.3247C9.64571 12.6821 8.63795 14.3068 7.89756 16.1989C7.15716 18.0499 6.78696 20.086 6.78696 22.3072C6.78696 24.6518 7.13659 26.7907 7.83586 28.724C8.57625 30.6161 9.60458 32.2408 10.9208 33.5982C12.2371 34.9556 13.8002 36.0045 15.61 36.7449C17.461 37.4441 19.4971 37.7938 21.7183 37.7938C23.0757 37.7938 24.4125 37.6087 25.7288 37.2385C27.045 36.8683 28.279 36.3336 29.4307 35.6343C30.4732 35.0014 31.4315 34.2673 32.3055 33.4322C32.4457 33.2982 32.6749 33.3252 32.7763 33.4905L35.7953 38.4102C35.8632 38.5209 35.8526 38.663 35.7662 38.76C34.834 39.8059 33.586 40.759 32.0221 41.6191C30.4179 42.524 28.6081 43.2439 26.5926 43.7786C24.6182 44.2722 22.6232 44.519 20.6077 44.519Z" fill="black"/>
<path d="M59.9859 44.519C56.942 44.519 54.1244 43.9637 51.533 42.8531C48.9828 41.7425 46.741 40.2001 44.8078 38.2257C42.9157 36.2102 41.4349 33.8656 40.3654 31.1919C39.3371 28.4772 38.8229 25.5156 38.8229 22.3072C38.8229 19.0988 39.3371 16.1578 40.3654 13.4842C41.4349 10.7694 42.9157 8.42481 44.8078 6.45042C46.741 4.43491 48.9828 2.87186 51.533 1.76127C54.1244 0.650681 56.942 0.0953827 59.9859 0.0953827C63.0297 0.0953827 65.8268 0.650681 68.3771 1.76127C70.9684 2.87186 73.2102 4.43491 75.1023 6.45042C77.0356 8.46594 78.5164 10.8311 79.5447 13.5459C80.6141 16.2195 81.1489 19.14 81.1489 22.3072C81.1489 25.4744 80.6141 28.4155 79.5447 31.1302C78.5164 33.8039 77.0356 36.1485 75.1023 38.164C73.2102 40.1795 70.9684 41.7425 68.3771 42.8531C65.8268 43.9637 63.0297 44.519 59.9859 44.519ZM59.9859 38.0406C62.0837 38.0406 63.9964 37.6498 65.724 36.8683C67.4927 36.0868 69.0146 34.9967 70.2897 33.5982C71.5649 32.1586 72.5521 30.4927 73.2513 28.6006C73.9917 26.6673 74.3619 24.5695 74.3619 22.3072C74.3619 20.0449 73.9917 17.9677 73.2513 16.0755C72.5521 14.1423 71.5649 12.4764 70.2897 11.0779C69.0146 9.63822 67.4927 8.52764 65.724 7.74611C63.9964 6.96459 62.0837 6.57382 59.9859 6.57382C57.8881 6.57382 55.9549 6.96459 54.1861 7.74611C52.4585 8.52764 50.9366 9.61766 49.6204 11.0162C48.3452 12.4147 47.358 14.0806 46.6588 16.0138C45.9595 17.906 45.6099 20.0038 45.6099 22.3072C45.6099 25.351 46.2269 28.0658 47.4609 30.4515C48.6949 32.7961 50.3813 34.6471 52.5202 36.0045C54.7003 37.3619 57.1888 38.0406 59.9859 38.0406Z" fill="black"/>
<path d="M87.4269 43.902C87.2612 43.902 87.1269 43.7677 87.1269 43.602V1.01236C87.1269 0.846676 87.2612 0.712362 87.4269 0.712362H93.4904C93.6561 0.712362 93.7904 0.846677 93.7904 1.01236V37.1853C93.7904 37.351 93.9248 37.4853 94.0904 37.4853H113.728C113.894 37.4853 114.028 37.6196 114.028 37.7853V43.602C114.028 43.7677 113.894 43.902 113.728 43.902H87.4269Z" fill="black"/>
<path d="M121.314 43.902C121.148 43.902 121.014 43.7677 121.014 43.602V1.01239C121.014 0.846705 121.148 0.712391 121.314 0.712391H127.377C127.543 0.712391 127.677 0.846706 127.677 1.01239V37.1853C127.677 37.351 127.811 37.4853 127.977 37.4853H147.615C147.78 37.4853 147.915 37.6196 147.915 37.7853V43.602C147.915 43.7677 147.78 43.902 147.615 43.902H121.314Z" fill="black"/>
<path d="M251.88 44.519C248.836 44.519 246.018 43.9637 243.427 42.8531C240.877 41.7426 238.635 40.2001 236.702 38.2257C234.81 36.2102 233.329 33.8656 232.259 31.192C231.231 28.4772 230.717 25.5156 230.717 22.3073C230.717 19.0989 231.231 16.1579 232.259 13.4842C233.329 10.7694 234.81 8.42486 236.702 6.45048C238.635 4.43496 240.877 2.87192 243.427 1.76133C246.018 0.650734 248.836 0.0954366 251.88 0.0954366C254.924 0.0954366 257.721 0.650734 260.271 1.76133C262.862 2.87192 265.104 4.43496 266.996 6.45048C268.93 8.466 270.41 10.8311 271.439 13.5459C272.508 16.2196 273.043 19.14 273.043 22.3073C273.043 25.4745 272.508 28.4155 271.439 31.1303C270.41 33.8039 268.93 36.1485 266.996 38.164C265.104 40.1795 262.862 41.7426 260.271 42.8531C257.721 43.9637 254.924 44.519 251.88 44.519ZM251.88 38.0406C253.978 38.0406 255.89 37.6499 257.618 36.8683C259.387 36.0868 260.909 34.9968 262.184 33.5983C263.459 32.1586 264.446 30.4927 265.145 28.6006C265.886 26.6674 266.256 24.5696 266.256 22.3073C266.256 20.0449 265.886 17.9677 265.145 16.0756C264.446 14.1423 263.459 12.4765 262.184 11.0779C260.909 9.63828 259.387 8.52769 257.618 7.74617C255.89 6.96464 253.978 6.57388 251.88 6.57388C249.782 6.57388 247.849 6.96464 246.08 7.74617C244.352 8.52769 242.831 9.61771 241.514 11.0162C240.239 12.4148 239.252 14.0806 238.553 16.0139C237.853 17.906 237.504 20.0038 237.504 22.3073C237.504 25.3511 238.121 28.0659 239.355 30.4516C240.589 32.7962 242.275 34.6472 244.414 36.0045C246.594 37.3619 249.083 38.0406 251.88 38.0406Z" fill="black"/>
<path fill-rule="evenodd" clip-rule="evenodd" d="M195.215 43.902C195.049 43.902 194.915 43.7677 194.915 43.602V37.4853H213.178C215.687 37.4853 217.641 36.93 219.04 35.8194C220.438 34.7088 221.137 33.1252 221.137 31.0685C221.137 29.7934 220.788 28.7034 220.088 27.7985C219.43 26.8935 218.484 26.2148 217.25 25.7624C216.016 25.2688 214.556 25.022 212.87 25.022H194.915V18.6052H212.561C213.795 18.6052 214.885 18.3584 215.831 17.8648C216.818 17.3712 217.579 16.6925 218.114 15.8287C218.69 14.9649 218.978 13.9778 218.978 12.8672C218.978 11.0162 218.361 9.5971 217.127 8.60991C215.893 7.62272 214.124 7.12912 211.821 7.12912H194.915V1.01238C194.915 0.846691 195.049 0.712377 195.215 0.712377H212.931C215.687 0.712377 218.011 1.12371 219.903 1.94637C221.795 2.76903 223.215 4.00301 224.161 5.64833C225.148 7.25252 225.641 9.22689 225.641 11.5715C225.641 13.9161 224.983 15.911 223.667 17.5563C222.772 18.7118 221.623 19.6136 220.22 20.2619C221.372 20.6798 222.418 21.2381 223.359 21.937C224.798 22.9653 225.909 24.261 226.69 25.8241C227.513 27.3871 227.924 29.1764 227.924 31.1919C227.924 33.2486 227.595 35.079 226.937 36.6832C226.32 38.2462 225.374 39.5625 224.099 40.6319C222.865 41.7014 221.364 42.524 219.595 43.0999C217.826 43.6346 215.811 43.902 213.548 43.902H195.215Z" fill="black"/>
<path fill-rule="evenodd" clip-rule="evenodd" d="M279.27 43.8623C279.105 43.8623 278.97 43.728 278.97 43.5623V0.972683C278.97 0.806998 279.105 0.672685 279.27 0.672685H297.357C299.825 0.672685 302.087 1.28968 304.144 2.52367C306.242 3.71653 307.908 5.36184 309.142 7.45962C310.376 9.51627 310.993 11.8403 310.993 14.4317C310.993 16.7762 310.376 18.9563 309.142 20.9718C307.908 22.9873 306.262 24.6121 304.206 25.8461C303.813 26.0738 303.412 26.2797 303.003 26.464C302.838 26.5382 302.771 26.7385 302.861 26.8951L312.589 43.6968C312.647 43.7973 312.574 43.9229 312.458 43.922L304.811 43.8636C304.704 43.8628 304.605 43.8045 304.552 43.7109L295.64 27.89C295.552 27.7327 295.385 27.6354 295.205 27.6354H285.934C285.768 27.6354 285.634 27.7697 285.634 27.9354V43.5623C285.634 43.728 285.5 43.8623 285.334 43.8623H279.27ZM297.974 21.2186H285.934C285.768 21.2186 285.634 21.0843 285.634 20.9186V7.38943C285.634 7.22374 285.768 7.08943 285.934 7.08943H296.246C297.768 7.08943 299.126 7.39793 300.318 8.01492C301.552 8.63191 302.499 9.4957 303.157 10.6063C303.856 11.6757 304.206 12.9303 304.206 14.37C304.206 15.6451 303.938 16.8174 303.403 17.8868C302.869 18.9151 302.128 19.7378 301.182 20.3548C300.236 20.9307 299.167 21.2186 297.974 21.2186Z" fill="black"/>
<path d="M330.821 0.866732C330.88 0.712686 331.029 0.611146 331.194 0.611146H337.432C337.598 0.611146 337.746 0.713128 337.805 0.867661L354.176 43.4678C354.226 43.5987 354.13 43.7394 353.99 43.7396L314.492 43.8003C314.351 43.8005 314.254 43.6593 314.305 43.5281L316.265 38.4643H344.9C345.038 38.4643 345.135 38.3263 345.088 38.1959L334.274 8.4724C334.226 8.34073 334.04 8.34079 333.992 8.47248L324.956 33.3547C324.913 33.4734 324.8 33.5523 324.674 33.5523H318.167L330.821 0.866732Z" fill="black"/>
<path d="M166.994 0.906345C167.054 0.752299 167.202 0.650755 167.367 0.650755H173.605C173.771 0.650755 173.919 0.752738 173.979 0.90727L190.349 43.507C190.4 43.638 190.303 43.7787 190.163 43.7787H150.688C150.548 43.7787 150.451 43.6376 150.502 43.5065L152.439 38.5039H181.073C181.212 38.5039 181.308 38.366 181.261 38.2355L170.447 8.51201C170.399 8.38034 170.213 8.3804 170.165 8.51209L161.13 33.3944C161.087 33.513 160.974 33.592 160.848 33.592H154.34L166.994 0.906345Z" fill="black"/>
<mask id="mask0_46_8" style="mask-type:alpha" maskUnits="userSpaceOnUse" x="354" y="0" width="158" height="45">
<path d="M375.235 44.4649C372.232 44.4649 369.476 43.9301 366.967 42.8607C364.458 41.7912 362.278 40.2693 360.427 38.2949C358.576 36.2794 357.136 33.9142 356.108 31.1994C355.121 28.4847 354.627 25.5025 354.627 22.253C354.627 19.168 355.162 16.3092 356.231 13.6767C357.342 11.0031 358.864 8.65849 360.797 6.64298C362.73 4.62746 364.972 3.0644 367.522 1.95381C370.073 0.843215 372.829 0.287914 375.79 0.287914C377.888 0.287914 379.924 0.616981 381.898 1.27511C383.914 1.8921 385.724 2.77647 387.328 3.9282C388.896 4.98677 390.184 6.19484 391.192 7.55238C391.278 7.66828 391.266 7.82902 391.166 7.93314L389.117 10.0673L387.111 12.1576C386.993 12.2798 386.798 12.2805 386.678 12.1606C384.979 10.4606 383.242 9.17668 381.467 8.30887C379.616 7.40394 377.724 6.95148 375.79 6.95148C373.775 6.95148 371.883 7.34224 370.114 8.12377C368.386 8.86416 366.864 9.91306 365.548 11.2704C364.273 12.6278 363.265 14.2526 362.525 16.1447C361.784 17.9957 361.414 20.0318 361.414 22.253C361.414 24.5976 361.764 26.7365 362.463 28.6698C363.203 30.5619 364.232 32.1866 365.548 33.544C366.864 34.9014 368.427 35.9503 370.237 36.6907C372.088 37.39 374.124 37.7396 376.346 37.7396C377.703 37.7396 379.04 37.5545 380.356 37.1843C381.672 36.8141 382.906 36.2794 384.058 35.5801C385.101 34.9472 386.059 34.2131 386.933 33.378C387.073 33.244 387.302 33.271 387.404 33.4363L390.423 38.3561C390.49 38.4668 390.48 38.6089 390.393 38.7058C389.461 39.7518 388.213 40.7049 386.649 41.565C385.045 42.4699 383.235 43.1898 381.22 43.7245C379.245 44.2181 377.25 44.4649 375.235 44.4649Z" fill="black"/>
<path d="M414.642 44.4236C411.598 44.4236 408.781 43.8683 406.189 42.7577C403.639 41.6471 401.397 40.1047 399.464 38.1303C397.572 36.1148 396.091 33.7702 395.022 31.0965C393.993 28.3818 393.479 25.4202 393.479 22.2118C393.479 19.0034 393.993 16.0624 395.022 13.3888C396.091 10.674 397.572 8.32943 399.464 6.35504C401.397 4.33953 403.639 2.77648 406.189 1.66589C408.781 0.555298 411.598 0 414.642 0C417.686 0 420.483 0.555298 423.033 1.66589C425.625 2.77648 427.867 4.33953 429.759 6.35504C431.692 8.37056 433.173 10.7357 434.201 13.4505C435.271 16.1241 435.805 19.0446 435.805 22.2118C435.805 25.3791 435.271 28.3201 434.201 31.0348C433.173 33.7085 431.692 36.0531 429.759 38.0686C427.867 40.0841 425.625 41.6471 423.033 42.7577C420.483 43.8683 417.686 44.4236 414.642 44.4236ZM414.642 37.9452C416.74 37.9452 418.653 37.5544 420.38 36.7729C422.149 35.9914 423.671 34.9014 424.946 33.5028C426.221 32.0632 427.208 30.3973 427.908 28.5052C428.648 26.5719 429.018 24.4741 429.018 22.2118C429.018 19.9495 428.648 17.8723 427.908 15.9802C427.208 14.0469 426.221 12.381 424.946 10.9825C423.671 9.54284 422.149 8.43226 420.38 7.65073C418.653 6.8692 416.74 6.47844 414.642 6.47844C412.545 6.47844 410.611 6.8692 408.843 7.65073C407.115 8.43226 405.593 9.52227 404.277 10.9208C403.002 12.3193 402.014 13.9852 401.315 15.9185C400.616 17.8106 400.266 19.9084 400.266 22.2118C400.266 25.2557 400.883 27.9704 402.117 30.3562C403.351 32.7007 405.038 34.5517 407.177 35.9091C409.357 37.2665 411.845 37.9452 414.642 37.9452Z" fill="black"/>
<path d="M441.684 1.01238C441.684 0.846694 441.818 0.71238 441.984 0.71238H458.59C461.675 0.71238 464.451 1.22655 466.919 2.25487C469.428 3.2832 471.567 4.76398 473.336 6.69722C475.105 8.63047 476.462 10.9133 477.408 13.5459C478.354 16.1784 478.827 19.0988 478.827 22.3072C478.827 25.5156 478.354 28.4566 477.408 31.1302C476.462 33.7627 475.105 36.0456 473.336 37.9789C471.608 39.871 469.49 41.3312 466.981 42.3595C464.472 43.3878 461.675 43.902 458.59 43.902H441.984C441.818 43.902 441.684 43.7677 441.684 43.602V37.4853H458.281C460.461 37.4853 462.395 37.1357 464.081 36.4364C465.809 35.7371 467.248 34.7499 468.4 33.4748C469.593 32.1586 470.498 30.5544 471.115 28.6623C471.732 26.7701 472.04 24.6518 472.04 22.3072C472.04 19.9626 471.732 17.8648 471.115 16.0138C470.498 14.1217 469.593 12.5175 468.4 11.2013C467.207 9.88502 465.768 8.87727 464.081 8.17801C462.395 7.47875 460.461 7.12912 458.281 7.12912H441.684V1.01238Z" fill="black"/>
<path fill-rule="evenodd" clip-rule="evenodd" d="M485.09 43.902C484.925 43.902 484.79 43.7677 484.79 43.602V37.4853H491.454H511.7C511.866 37.4853 512 37.6196 512 37.7853V43.602C512 43.7677 511.866 43.902 511.7 43.902H485.09ZM508.606 24.6603C508.606 24.826 508.472 24.9603 508.306 24.9603H484.79V18.5435H508.306C508.472 18.5435 508.606 18.6778 508.606 18.8435V24.6603ZM484.79 7.12912V1.01238C484.79 0.846694 484.925 0.71238 485.09 0.71238H511.7C511.866 0.71238 512 0.846695 512 1.01238V6.82912C512 6.99481 511.866 7.12912 511.7 7.12912H491.454H484.79Z" fill="black"/>
</mask>
<g mask="url(#mask0_46_8)">
<mask id="mask1_46_8" style="mask-type:alpha" maskUnits="userSpaceOnUse" x="354" y="-13" width="166" height="73">
<rect x="354.394" y="-12.1544" width="165.346" height="71.993" fill="black"/>
</mask>
<g mask="url(#mask1_46_8)">
<rect x="354.394" y="59.8386" width="71.99" height="165.35" transform="rotate(-90 354.394 59.8386)" fill="url(#paint0_linear_46_8)"/>
</g>
</g>
<defs>
<linearGradient id="paint0_linear_46_8" x1="390.389" y1="59.8386" x2="390.389" y2="225.189" gradientUnits="userSpaceOnUse">
<stop stop-color="#597EFF"/>
<stop offset="0.723958" stop-color="#0B33AB"/>
<stop offset="1" stop-color="#08205F"/>
</linearGradient>
</defs>
</svg>
