<svg width="512" height="215" viewBox="0 0 512 215" fill="none" xmlns="http://www.w3.org/2000/svg">
<path d="M427.927 179.643C427.834 179.737 427.706 179.789 427.574 179.789H353.538C353.406 179.789 353.278 179.737 353.185 179.643L303.579 130.037L279.342 107.859L256 83.0543L173.092 0.146448C172.998 0.05268 172.871 0 172.739 0H70.1494C70.0168 0 69.8896 0.0526783 69.7958 0.146446L0 69.9422H48.5367C48.6694 69.9422 48.7965 69.8895 48.8903 69.7957L84.0726 34.6134C84.1664 34.5197 84.2935 34.467 84.4261 34.467H118.375H137.215H158.462C158.594 34.467 158.722 34.5197 158.815 34.6134L208.421 84.2189L232.508 106.546L255.702 131.5L338.312 214.11C338.405 214.204 338.533 214.256 338.665 214.256H441.851C441.983 214.256 442.11 214.204 442.204 214.11L512 144.314H463.463C463.331 144.314 463.203 144.367 463.11 144.461L427.927 179.643Z" fill="black"/>
<path d="M190.315 106.407C190.392 106.484 190.393 106.609 190.318 106.687L120.654 178.942C120.348 179.26 120.573 179.789 121.014 179.789H138.468C138.602 179.789 138.731 179.735 138.825 179.64L210.467 106.689C210.545 106.61 210.544 106.483 210.465 106.406L137.215 34.467H118.375L190.315 106.407Z" fill="black"/>
<mask id="mask0_46_14" style="mask-type:alpha" maskUnits="userSpaceOnUse" x="0" y="0" width="512" height="215">
<path d="M69.7958 214.11C69.8896 214.204 70.0168 214.256 70.1494 214.256H172.739C172.871 214.256 172.998 214.204 173.092 214.11L255.361 131.841C255.551 131.651 255.557 131.344 255.374 131.147L232.857 106.921C232.666 106.715 232.343 106.707 232.142 106.904L208.421 130.037L158.815 179.643C158.722 179.737 158.594 179.789 158.462 179.789H138.678H119.838H84.4261C84.2935 179.789 84.1664 179.737 84.0726 179.643L48.8903 144.461C48.7965 144.367 48.6694 144.314 48.5368 144.314H0L69.7958 214.11Z" fill="#7E7E7E"/>
<path fill-rule="evenodd" clip-rule="evenodd" d="M442.204 0.146449C442.11 0.0526805 441.983 0 441.851 0H339.261C339.129 0 339.002 0.0526783 338.908 0.146446L256.343 82.7113C256.152 82.9024 256.147 83.2108 256.332 83.4075L278.994 107.489C279.185 107.692 279.507 107.699 279.707 107.504L303.579 84.2189L353.185 34.6134C353.278 34.5197 353.406 34.467 353.538 34.467H373.674C374.122 34.467 374.344 35.0101 374.024 35.3237L301.647 106.406C301.568 106.483 301.567 106.61 301.644 106.688L373.287 179.64C373.381 179.735 373.51 179.789 373.644 179.789H391.098C391.539 179.789 391.764 179.26 391.458 178.942L321.794 106.687C321.719 106.609 321.72 106.484 321.797 106.407L393.59 34.6134C393.684 34.5197 393.811 34.467 393.944 34.467H427.574C427.706 34.467 427.834 34.5197 427.927 34.6134L463.11 69.7957C463.203 69.8895 463.331 69.9422 463.463 69.9422H512L442.204 0.146449Z" fill="#7E7E7E"/>
</mask>
<g mask="url(#mask0_46_14)">
<mask id="mask1_46_14" style="mask-type:alpha" maskUnits="userSpaceOnUse" x="0" y="-5" width="512" height="224">
<rect x="6.10352e-05" y="-4.33603" width="512" height="222.929" fill="black"/>
</mask>
<g mask="url(#mask1_46_14)">
<rect y="218.592" width="222.919" height="512.011" transform="rotate(-90 0 218.592)" fill="url(#paint0_linear_46_14)"/>
</g>
</g>
<defs>
<linearGradient id="paint0_linear_46_14" x1="111.46" y1="218.592" x2="111.46" y2="730.603" gradientUnits="userSpaceOnUse">
<stop stop-color="#597EFF"/>
<stop offset="0.723958" stop-color="#0B33AB"/>
<stop offset="1" stop-color="#08205F"/>
</linearGradient>
</defs>
</svg>
